 http://www.imdb.com/title/tt0119008/

Source: Donnie.Brasco.(Extended.Cut).1997.Blu-ray.720p.x264.DTS.DD20.DualAudio-MySiLU Thanks!

Subs: Arabic, Brazilian, Croatian, Czech, Danish, Dutch, English, Finnish, French, Greek, Hebrew, Hungarian, Indonesian, Persian, Polish, Portuguese, Romanian, Servian, Slovenian, Spanish, Swedish, Turkish and Vietnamese.

Sample and Screens included.

General
Complete name                            : Donnie Brasco-720p MP4 AAC x264 Extended Cut BRRip 1997-CC.mp4
Format                                   : MPEG-4
Format profile                           : Base Media
Codec ID                                 : isom
File size                                : 3.74 GiB
Duration                                 : 2h 27mn
Overall bit rate mode                    : Variable
Overall bit rate                         : 3 644 Kbps
Encoded date                             : UTC 2012-11-21 19:38:42

Video
ID                                       : 1
Format                                   : AVC
Format/Info                              : Advanced Video Codec
Format profile                           : High@L4.1
Format settings, CABAC                   : Yes
Format settings, ReFrames                : 5 frames
Codec ID                                 : avc1
Codec ID/Info                            : Advanced Video Coding
Duration                                 : 2h 27mn
Bit rate                                 : 3 280 Kbps
Maximum bit rate                         : 22.8 Mbps
Width                                    : 1 280 pixels
Height                                   : 528 pixels
Display aspect ratio                     : 2.40:1
Frame rate mode                          : Variable
Frame rate                               : 23.976 fps
Minimum frame rate                       : 15.932 fps
Maximum frame rate                       : 24.390 fps
Color space                              : YUV
Chroma subsampling                       : 4:2:0
Bit depth                                : 8 bits
Scan type                                : Progressive
Bits/(Pixel*Frame)                       : 0.202
Stream size                              : 3.34 GiB (89%)
Writing library                          : x264 core 112

Audio
ID                                       : 2
Format                                   : AAC
Format/Info                              : Advanced Audio Codec
Format profile                           : LC
Codec ID                                 : 40
Duration                                 : 2h 27mn
Bit rate mode                            : Variable
Bit rate                                 : 384 Kbps
Maximum bit rate                         : 669 Kbps
Channel(s)                               : 6 channels
Channel positions                        : Front: L C R, Side: L R, LFE
Sampling rate                            : 48.0 KHz
Compression mode                         : Lossy
Delay relative to video                  : 83ms
Stream size                              : 404 MiB (11%)
Language                                 : English

Enjoy...

Requested by SantaClaus LOL

Coming soon: The Gold Rush, Buffalo 66, The Polar Express and more...